<svg width="0" height="0" style="position:absolute"><symbol viewBox="-1 -1 19 18" id="image-linkedin" xmlns="http://www.w3.org/2000/svg"><g clip-path="url(#aclip0_9_343)"><path fill-rule="evenodd" clip-rule="evenodd" d="M13.78 5.159l.031.01a3.518 3.518 0 012.638 3.4v7.318h-3.526V8.986c-1.125-2.727-3.79.986-3.79.986v5.915h-3.53V5.042h3.53v2.074c.429-.579 1.733-2.074 3.79-2.074.213 0 .425.021.633.064.048.008.095.017.142.027l.081.026zm-9.578-.117H.674v10.845h3.528V5.042z"/><path d="M2.4 3.564a1.726 1.726 0 100-3.452 1.726 1.726 0 000 3.452z"/></g><defs><clipPath id="aclip0_9_343"><path transform="translate(.674 .112)" d="M0 0h15.775v15.775H0z"/></clipPath></defs></symbol><symbol viewBox="-1 -1 18 18" id="image-twitter" xmlns="http://www.w3.org/2000/svg"><path d="M15.748 2.026l-2.872 11.155c-.136.526-.761.796-1.274.547L7.97 11.961 6.25 14.609c-.467.722-1.65.409-1.65-.435v-2.951c0-.228.101-.446.276-.605l7.081-6.368c-.005-.08-.096-.149-.186-.09L3.321 9.7.482 8.32a.818.818 0 01.05-1.513l14-5.747c.67-.276 1.392.292 1.217.966z"/></symbol></svg>