<svg width="115" height="24" viewBox="0 0 115 24" fill="none" xmlns="http://www.w3.org/2000/svg"><path d="M11.646.001H4.859v.566h2.2v11.528c0 3.496-.916 4.44-3.024 4.44-1.284 0-1.56-1.039-1.56-1.512 0-1.228-.091-2.077-1.193-2.077-1.1 0-1.282 1.133-1.282 1.511 0 1.606.733 2.834 3.76 2.834 3.668 0 5.593-1.228 5.593-5.479V.566h2.201V.001h.092Zm.918 14.644c-.367 0-.734.097-.918.378-.275.284-.367.568-.367.946 0 .376.092.66.367.945.275.283.55.376.918.376.366 0 .641-.094.916-.376.276-.283.367-.57.367-.945 0-.378-.091-.662-.367-.946-.275-.283-.55-.378-.917-.378Zm15.04 0c-.368 0-.643.097-.919.378-.274.284-.366.568-.366.946 0 .376.092.66.366.945.276.283.551.376.918.376s.733-.094.918-.376c.274-.284.366-.57.366-.945 0-.378-.092-.662-.367-.946-.276-.283-.55-.378-.918-.378h.001ZM22.833.001H16.23v.566h1.926v13.23c0 1.038-.092 1.32-.183 1.605-.092.379-.367.568-.826.757-.274.095-.733.188-1.376.188v.567h7.154v-.567c-.643 0-1.1-.093-1.377-.188-.457-.189-.733-.473-.823-.756a2.996 2.996 0 0 1-.185-1.04V9.827h1.742c5.136 0 6.604-2.077 6.604-4.913 0-2.93-.826-4.914-6.053-4.914v.001Zm-.919 9.165H20.54V.662h1.193c3.943 0 4.86 1.7 4.86 4.346 0 2.74-1.558 4.158-4.678 4.158Zm28.155 6.141a3.623 3.623 0 0 1-.183-1.133V.567h1.741V.001h-4.216c-.091.19-5.042 12.85-5.042 12.85l-.092.096c-.092 0-.092 0-.092-.095 0 0-5.318-12.756-5.318-12.85h-4.68v.567h2.017V14.93c0 .285-.092.569-.275.851a1.423 1.423 0 0 1-.734.566c-.184.097-.55.097-.918.097v.565h4.586v-.567c-.367 0-.55-.095-.825-.095-.367-.094-.55-.284-.734-.567-.183-.19-.275-.473-.275-.85l-.092-1.23V2.362h.275s5.961 14.362 6.053 14.551h.459L47.41 2.457h.184v11.717c0 .472-.092.85-.184 1.228s-.366.567-.733.756a3.5 3.5 0 0 1-1.192.188v.567h6.42v-.567a3.504 3.504 0 0 1-1.193-.188c-.275-.19-.55-.473-.642-.851Zm8.712-10.77c-3.485 0-5.594 2.36-5.594 6.424 0 6.047 4.586 6.425 5.502 6.425 1.926 0 5.595-1.228 5.595-6.518 0-4.158-2.385-6.332-5.503-6.332ZM58.69 16.63c-2.567 0-3.026-1.322-3.026-5.574 0-3.307.183-5.765 3.026-5.765 3.026 0 3.026 2.551 3.026 5.574 0 4.253-.733 5.765-3.026 5.765ZM73.273 4.725c-2.02 0-2.751 1.228-3.303 2.55h-.183s-.275-1.889-.366-2.362h-4.036v.662h2.2v8.315c0 .85-.09 1.418-.273 1.794-.184.38-.735.662-1.56.662h-.367v.756h6.787v-.756h-.367c-.918 0-1.283-.188-1.469-.566-.182-.378-.274-.946-.274-1.796V9.45c0-1.418 1.1-3.117 2.385-3.117 1.375 0 1.282 2.077 2.843 1.228.734-.473.55-2.835-2.017-2.835Zm26.685 10.959c-.734 0-.916-.376-1.008-1.132V7.938c0-1.135-.185-1.796-.825-2.459-.642-.66-1.835-.945-3.577-.945-1.65 0-2.842.285-3.668.945-.733.569-1.1 1.135-1.1 1.986 0 .376.093.66.275.755.183.19.459.284.733.284.641 0 1.01-.376 1.192-1.228.094-.662.275-1.039.552-1.418.364-.376.917-.567 1.557-.567.826 0 1.468.188 1.743.661.275.473.459 1.04.459 1.794v1.986c-2.111.189-7.246.66-6.97 4.63.091 1.511 1.376 2.928 3.118 2.928 1.926 0 3.117-1.132 3.941-1.984.093.85.918 1.89 2.295 1.89 1.557 0 2.475-.756 2.568-2.74h-.367c0 .756-.459 1.23-.918 1.23v-.002Zm-3.484-1.321v.094l-.091.095c-1.1 1.04-2.017 1.418-2.66 1.418-1.65 0-1.926-1.418-1.926-2.079 0-2.267 3.027-3.402 4.677-3.402v3.874Zm17.241 1.228c-.183-.377-.459-.946-.459-1.794V8.314c0-.755-.092-1.512-.367-1.983-.275-.568-.733-.946-1.192-1.23-.55-.283-1.1-.377-1.741-.377-2.385 0-3.303 1.512-3.852 2.362h-.184l-.459-2.174h-3.668v.662h1.835v8.315c0 .662-.093 1.133-.185 1.418-.093.376-.364.66-.641.755-.183.095-.55.19-1.009.19v.755h5.777v-.755c-.551-.095-1.01-.19-1.192-.473-.184-.284-.366-.851-.366-1.701v-3.212c0-1.322 0-2.647.459-3.402.457-.851 1.374-1.323 2.292-1.323.918 0 1.375.284 1.652.85.274.473.365 1.89.365 2.834v3.97c0 .66.094 1.133 0 1.418-.091.375-.183.66-.459.848-.183.19-.551.19-.917.284v.756H115v-.756c-.644-.283-1.101-.473-1.285-.755ZM87.487 3.969c-.367.094-.55.473-.734.945-.091.473-.275.756-.55.849-.276.096-.55.096-.825-.093-.641-.568-1.743-1.228-3.76-1.228-3.302 0-4.678 2.361-4.678 4.533 0 2.552.918 3.781 3.026 4.253.092 0 .092.19 0 .19-1.742.377-3.393.945-3.393 2.645 0 1.04.551 1.607 1.377 1.985.824.377 2.016.567 3.484.567 1.282 0 2.2.095 2.75.095a3.867 3.867 0 0 1 1.56.567c.367.284.55.756.55 1.321 0 .851-.459 1.419-1.283 1.986-.824.473-1.836.662-3.21.662-1.1 0-2.109-.096-2.934-.662-.642-.378-.735-1.133-.642-1.7.093-.568-.093-1.134-.734-1.323a.898.898 0 0 0-.58.063.935.935 0 0 0-.428.41c-.185.28-.277.659-.277 1.132 0 1.417 1.102 2.078 1.926 2.361 1.284.377 2.111.473 3.21.473 1.56 0 2.751-.284 3.669-.662.918-.473 1.468-1.039 1.834-1.7.366-.661.55-1.323.55-1.985 0-.85-.184-1.606-.55-2.078-1.192-1.606-2.844-1.418-6.511-1.606-1.743 0-2.11-.378-2.11-.946 0-.85.642-1.133 3.21-1.606C84 13.04 86.385 12 86.385 8.882c0-.945-.182-1.7-.459-2.267.552.094 1.01.094 1.468 0 .552-.189.825-.473 1.01-.756.184-.378.274-.757.092-1.04.092-.756-.367-1.04-1.008-.85ZM81.71 12.85c-1.557 0-2.385-.569-2.385-3.78 0-2.267.735-3.969 2.385-3.969 1.927 0 2.476 1.512 2.476 3.875 0 3.401-1.008 3.874-2.476 3.874Z" fill="#fff"/></svg>