<svg width="92" height="20" viewBox="0 0 92 20" fill="none" xmlns="http://www.w3.org/2000/svg"><path d="M50.653 2.291c.74-1.295 2.229-1.977 3.671-1.99 1.317-.086 2.806.135 3.728 1.188-.468.625-.917 1.264-1.386 1.889-.523-.607-.953-1.462-1.798-1.634-.832-.26-1.878.177-2.095 1.079-.35 1.43-.139 2.926-.19 4.385h2.702v1.629H52.58c0 2.454 0 4.909-.003 7.364-.01.695.1 1.383.23 2.066a4.828 4.828 0 0 0 1.968.45l-.008.683c-2.21-.146-4.424-.19-6.632-.002 0-.144.006-.43.006-.574.698-.125 1.564-.453 1.592-1.303.27-2.884.088-5.79.142-8.684-.539 0-1.077 0-1.616-.003.003-.245.008-.492.01-.737.547-.255 1.08-.54 1.605-.831 0-1.673-.097-3.482.779-4.974ZM90.503.298c-1.43.334-2.878.615-4.347.68a38.26 38.26 0 0 0-.056.542c.546.167 1.437.123 1.476.894.219 1.563.064 3.15.108 4.724-2.105-.365-4.457-.342-6.248.985-1.96 1.389-2.633 3.979-2.437 6.287.11 1.79.997 3.628 2.602 4.5 1.912 1.063 4.357.845 6.148-.38.013.362.02.724.023 1.086a22.116 22.116 0 0 1 4.228-.64v-.626c-2.02-.348-1.461-1.293-1.603-2.9.003-5.05-.075-10.102.106-15.152Zm-5.239 8.143a4.262 4.262 0 0 1 2.42.748c.003 2.717-.005 5.435.005 8.152-1.5.696-3.527.647-4.702-.64-1.007-1.09-1.177-2.684-1.087-4.107.1-1.295.369-2.775 1.487-3.578a3.328 3.328 0 0 1 1.877-.575ZM5.51 1.958c1.698-.104 3.4.008 5.08.248a22.82 22.82 0 0 0 .003 3.635l-.649.002c-.129-.755-.263-1.673-1.059-2.009-1.18-.503-2.56-.552-3.785-.193-1.6.48-1.863 2.861-.672 3.901 1.489 1.319 3.313 2.181 4.838 3.46 2.389 1.923 2.077 6.4-.757 7.747-2.386 1.115-5.186.834-7.65.133a61.869 61.869 0 0 0-.082-3.592l.716-.013c.126.753.242 1.678.997 2.066 1.35.766 3.092.829 4.494.17 1.75-.978 1.427-3.802-.21-4.754-1.419-1.105-3.05-1.923-4.361-3.17C.96 8.222.779 5.83 1.715 4.123c.765-1.36 2.308-2.04 3.795-2.165ZM15.586 4.52c.134.007.405.02.539.028-.003.91-.003 1.816-.003 2.726h4.123v1.563h-4.123c.016 2.189-.033 4.38.023 6.572.057.833.08 1.873.85 2.384.972.583 2.134.219 3.105-.164.3.74-.46 1.154-.989 1.461a5.085 5.085 0 0 1-4.032.167c-1.095-.414-1.623-1.626-1.68-2.736-.131-2.559 0-5.123.02-7.684h-1.61l-.008-.51c1.75-.668 2.93-2.192 3.785-3.807Zm11.033 2.34c-1.858-.019-3.731.914-4.328 2.8.162.094.492.28.657.373.713-1.274 2.38-1.928 3.694-1.193 1.031.474 1.119 1.748 1.098 2.746-1.62.527-3.298.94-4.828 1.712-1.835.98-2.072 3.757-.758 5.26 1.549 1.437 4.133 1.205 5.663-.153.467.933 1.57 1.29 2.53 1.016.838-.164 1.392-.87 1.94-1.467-.095-.11-.288-.33-.383-.443-.346.089-.735.365-1.072.097-.438-.305-.384-.918-.415-1.39.03-2.021.142-4.048.036-6.073-.052-1.047-.515-2.118-1.433-2.668-.716-.402-1.557-.608-2.401-.617Zm1.093 6.305c.01 1.363 0 2.726.01 4.088-.863.389-1.889.748-2.798.303-1.113-.6-1.067-2.392-.147-3.145.884-.615 1.932-.904 2.935-1.246Z" fill="#8C1515"/><path d="M62.128 6.911c-1.358.016-2.76.357-3.82 1.251-1.58 1.293-2.265 3.43-2.196 5.435-.008 1.718.52 3.55 1.858 4.69 1.58 1.392 3.875 1.53 5.84 1.116 2.075-.461 3.633-2.298 4.074-4.357.474-2.136.276-4.62-1.177-6.344-1.119-1.324-2.91-1.824-4.579-1.79Zm.018 1.459c.73.014 1.452.317 1.92.905.847 1.05 1.074 2.462 1.136 3.78.01 1.436-.17 2.986-1.064 4.159-.879 1.15-2.772 1.277-3.785.242-.775-.727-1.064-1.808-1.24-2.824-.182-1.35-.136-2.754.284-4.055.294-.87.866-1.75 1.773-2.048.311-.113.645-.166.977-.16Zm-28.89-.63c1.44-.024 2.901-.175 4.231-.777.046.347.082.693.11 1.045 1.529-1.01 3.502-1.404 5.252-.779 1.252.425 2.128 1.665 2.239 2.978.257 2.5-.116 5.032.213 7.526.036.784.871.961 1.477 1.089.002.146.002.438.005.584-2.046-.165-6.142-.008-6.142-.008l-.008-.591s1.478-.42 1.572-.85c.337-1.855.257-3.773.24-5.657-.068-1.126-.04-2.533-1.104-3.218-1.141-.665-2.54-.357-3.707.073.008 2.439 0 4.88 0 7.32.033.65-.013 1.393.407 1.935.353.248.796.292 1.2.407.003.145.006.44.006.588-2.018-.132-4.04-.218-6.055-.002 0-.146.005-.435.005-.579.613-.143 1.422-.338 1.538-1.089.281-1.798.065-3.635.132-5.448-.026-1.035.087-2.082-.093-3.104-.142-.698-.984-.659-1.515-.797l-.003-.646Zm36.004-.055c1.442-.02 2.885-.219 4.256-.685l.038 1.074c1.387-1.129 3.476-1.415 4.952-.298l-1.539 2.377c-.719-1.12-2.177-1.392-3.329-.821 0 0-.008 4.932.008 7.397.06.55-.026 1.264.484 1.624.493.291 1.09.276 1.639.364l-.003.683c-2.213-.151-4.431-.182-6.644-.005v-.678c.713-.123 1.455-.372 1.564-.802.306-1.06.157-2.184.188-3.275-.031-1.739.062-3.48-.042-5.214-.007-.845-.953-.92-1.566-1.043 0-.239-.004-.485-.005-.698h-.002Z" fill="#8C1515"/></svg>