<svg width="47" height="30" viewBox="0 0 47 30" fill="none" xmlns="http://www.w3.org/2000/svg"><path d="m14.682 24.173-.085.083c-1.342 1.367-2.896 2.09-4.496 2.09-3.341 0-5.766-2.507-5.766-5.965 0-3.453 2.425-5.963 5.766-5.963 1.6 0 3.154.726 4.496 2.1l.085.08L16.832 14l-.058-.07c-1.787-2.112-3.932-3.139-6.569-3.139-2.643 0-5.063.891-6.804 2.495-1.897 1.74-2.895 4.191-2.895 7.095s.998 5.361 2.894 7.1c1.742 1.614 4.162 2.498 6.806 2.498 2.636 0 4.781-1.029 6.568-3.142l.057-.064-2.149-2.6Zm4.32 5.451h3.796V11.091h-3.796v18.533Zm18.668-4.029c-1.015.617-1.956.929-2.803.929-1.227 0-1.783-.65-1.783-2.092v-9.834h3.87v-3.489h-3.87V5.342l-3.72 1.993v3.774h-3.21v3.489h3.21v10.46c0 2.85 1.688 4.8 4.21 4.85 1.711.034 2.742-.477 3.367-.85l.04-.026.913-3.574-.225.137Zm3.141 4.029h3.801V11.091h-3.8v18.533Z" fill="#184581"/><path d="M46.826 7.843C43.358 2.93 37.6 0 31.74 0c-5.858 0-11.618 2.93-15.08 7.843l-.18.252h4.368l.048-.052c2.972-3.07 6.854-4.69 10.844-4.69 3.991 0 7.87 1.62 10.848 4.69l.048.052H47l-.174-.252Z" fill="#DC352F"/></svg>