<svg width="75" height="22" viewBox="0 0 75 22" fill="none" xmlns="http://www.w3.org/2000/svg"><path d="M30.295.898h-20.18v20.18h20.18V.898Z" fill="#fff"/><path d="M40.385 11.012 30.295.898v20.204l10.09-10.09Zm-20.18 0L30.295.898h-20.18l10.09 10.114ZM0 11.012l10.114 10.09V.898L0 11.012Zm20.205 0-10.09 10.09h20.18l-10.09-10.09Z" fill="#DB0011"/><path d="M49.24 11.605h-3.656v3.61h-1.828V6.761h1.828v3.466h3.657V6.762h1.828v8.452H49.24v-3.609Zm6.245 3.775c-1.829 0-3.324-.736-3.348-2.754h1.828c.024.902.546 1.449 1.543 1.449.736 0 1.591-.38 1.591-1.211 0-.665-.57-.855-1.52-1.14l-.617-.166c-1.33-.38-2.659-.902-2.659-2.422 0-1.875 1.757-2.516 3.348-2.516 1.638 0 3.063.57 3.086 2.445H56.91c-.071-.76-.522-1.21-1.377-1.21-.688 0-1.353.355-1.353 1.115 0 .617.57.807 1.757 1.187l.712.214c1.448.451 2.374.95 2.374 2.374-.024 1.9-1.875 2.635-3.537 2.635Zm4.559-8.594h2.944c.546-.024 1.116 0 1.662.095 1.02.237 1.804.902 1.804 2.041 0 1.093-.688 1.639-1.686 1.9 1.14.214 1.995.783 1.995 2.042 0 1.923-1.9 2.35-3.372 2.35h-3.323l-.024-8.428Zm2.944 3.514c.807 0 1.638-.167 1.638-1.14 0-.879-.76-1.116-1.52-1.116h-1.282v2.255h1.164Zm.166 3.656c.855 0 1.686-.19 1.686-1.235 0-1.044-.713-1.234-1.591-1.234H61.8v2.469h1.353Zm8.356 1.424c-2.73 0-3.941-1.733-3.941-4.32 0-2.589 1.353-4.464 4.036-4.464 1.686 0 3.324.76 3.371 2.659h-1.9c-.094-.855-.664-1.282-1.471-1.282-1.662 0-2.16 1.78-2.16 3.134 0 1.353.498 2.92 2.089 2.92.83 0 1.448-.451 1.567-1.306H75c-.19 1.947-1.733 2.66-3.49 2.66Z" fill="#fff"/></svg>