<svg width="37" height="36" viewBox="0 0 37 36" fill="none" xmlns="http://www.w3.org/2000/svg"><path d="M36.506 0h-36v36h36V0Z" fill="#ED1C2E"/><path d="M7.27 6.9h2.368v19.732h3.516v2.45H7.27V6.9Zm16.524.003h5.987V9.32h-3.618v7.112h3.382v2.587h-3.382v7.61h3.618v2.452h-5.986V6.902Zm-8.576 22.171v-2.426l.742-.003c.975-.005 2.623-.684 2.866-2.219.236-1.486.062-2.562-1.85-5.827l-.024-.055c-1.331-2.17-2.593-4.064-2.122-7.037.512-3.232 3.04-4.655 5.338-4.612l.743-.001V9.32l-.743.003c-.974.006-2.668.674-2.912 2.208-.235 1.487-.073 2.448 1.789 5.67l.05.082c1.382 2.227 2.628 4.194 2.157 7.167-.512 3.232-2.993 4.666-5.292 4.624h-.742" fill="#fff"/></svg>