<svg width="118" height="24" viewBox="0 0 118 24" fill="none" xmlns="http://www.w3.org/2000/svg"><path fill-rule="evenodd" clip-rule="evenodd" d="m99.174 17.53 8.698-11.93h4.11l-8.698 11.93h-4.11ZM94.135.103h22.886v22.91H94.135V.105Zm3.202 3.207v16.492H113.8V3.31H97.337ZM5.572 14.74l-.437-.257-.474-.168-.51-.112-.492-.044H1.71v7.709h1.658l.73-.056.6-.112.547-.2.456-.269.382-.346.292-.459.219-.491.163-.57.092-.648.036-.737-.036-.603-.092-.615-.163-.58-.219-.537-.365-.491-.437-.415Zm-1.276 8.055-.8.056H.505v-9.664H3.22l.638.033.693.056.637.134.62.18.62.323.474.425.419.457.327.56.238.58.147.648.109.693.017.704-.017.77-.128.727-.183.66-.254.613-.365.537-.401.447-.51.401-.565.313-.693.224-.748.123Zm7.783-5.977-.477.056-.404.2-.348.235-.257.336-.202.402-.128.424-.073.47h3.61l-.036-.458-.092-.436-.164-.402-.257-.325-.31-.246-.386-.2-.476-.056Zm-1.906 2.916v.134l.018.447.109.413.147.402.201.38.293.29.33.235.385.134.458.056.44-.056.386-.134.31-.212.258-.313.184-.38.109-.435h1.082l-.165.636-.256.526-.367.413-.403.335-.496.235-.568.123-.606.055-.642-.055-.55-.157-.494-.246-.402-.302-.332-.402-.256-.469-.183-.548-.129-.592-.037-.636.037-.638.13-.614.182-.57.256-.48.349-.436.421-.369.514-.268.568-.146.66-.055.623.055.513.124.441.234.367.335.275.357.238.459.183.468.092.526.055.559.019.58h-4.747v.002Zm10.397 3.139-.037-1.05-.347.413-.345.325-.419.2-.454.146-.545.056-.583-.056-.49-.145-.402-.201-.308-.291-.255-.38-.146-.458-.11-.525-.036-.581v-4.179h1.164v4.112l.019.358.053.346.11.29.128.268.164.246.255.157.345.112.402.021.49-.055.381-.134.31-.235.22-.29.181-.347.127-.39.054-.46.037-.457v-3.542h1.11v4.995l.036 1.731H20.57Zm4.804.09-.473-.034-.383-.134-.309-.212-.236-.29-.128-.403-.054-.491v-4.436h-1.274v-.816h1.274V14.83l1.127-.47v1.788h1.455v.816h-1.455v4.29l.056.29.072.224.182.157.236.078.346.034.618-.056v.893l-.526.056-.528.034Zm4.21.056-.512-.023-.457-.089-.44-.156-.384-.235-.31-.29-.238-.37-.146-.468-.055-.559h1.133l.037.414.165.346.201.268.293.179.347.134.42.033.348-.033.35-.078.31-.157.22-.246.183-.268.054-.357-.055-.291-.109-.28-.203-.178-.236-.168-.422-.145-.475-.145-.44-.1-.347-.09-.366-.145-.329-.146-.294-.2-.255-.235-.183-.257-.129-.346-.035-.436.035-.47.184-.413.256-.335.311-.246.385-.223.42-.123.439-.09.44-.022.475.022.44.09.384.145.365.201.274.29.238.336.146.436.056.514H30.94l-.074-.414-.146-.346-.292-.235-.33-.167-.44-.057-.31.023-.31.09-.275.111-.238.179-.147.268-.054.313.054.29.092.212.183.18.256.167.476.179.438.112.458.122.366.112.348.135.327.145.294.19.256.234.184.28.127.357.056.436-.056.469-.127.402-.238.346-.257.258-.329.256-.383.146-.421.145-.403.044-.44.023Zm6.586 0-.64-.056-.587-.168-.494-.234-.44-.302-.349-.402-.293-.48-.203-.56-.109-.58-.037-.67.037-.66.11-.637.202-.558.293-.514.349-.436.44-.346.513-.269.605-.167.658-.056.548.033.48.112.435.18.37.256.335.324.257.425.168.49.088.549h-1.14l-.078-.458-.122-.37-.224-.29-.313-.212-.358-.134-.446-.045-.474.045-.404.134-.33.212-.276.29-.22.347-.145.403-.11.402-.038.457-.036.436.036.437.038.413.127.424.166.38.2.346.258.257.33.246.404.134.418.056.448-.056.38-.167.345-.213.224-.312.168-.403.067-.457h1.14l-.113.569-.178.514-.257.413-.336.314-.38.268-.458.178-.502.145-.548.023Zm8.312-.168v-4.122l-.044-.358-.046-.347-.1-.302-.122-.267-.2-.235-.27-.168-.335-.111-.39-.012-.48.045-.348.134-.346.235-.213.29-.19.391-.122.392-.067.424-.045.458v3.553H40.06v-9.664h1.105v3.977l.346-.425.347-.323.424-.224.47-.123.524-.056.582.056.492.123.401.224.325.29.245.38.146.436.1.547.022.593v4.189h-1.106Zm5.375-6.033-.47.056-.402.2-.324.235-.245.336-.224.402-.122.424-.079.47h3.575l-.044-.458-.09-.436-.157-.402-.256-.325-.313-.246-.38-.2-.469-.056Zm-1.877 2.916v.134l.01.447.112.413.146.402.201.38.29.29.325.235.379.134.447.056.435-.056.38-.134.313-.212.257-.313.179-.38.112-.435h1.062l-.157.636-.258.526-.346.413-.413.335-.491.235-.548.123-.615.055-.625-.055-.547-.157-.469-.246-.414-.302-.334-.402-.247-.469-.179-.548-.133-.592-.035-.636.035-.638.133-.614.18-.57.246-.48.346-.436.425-.369.5-.268.56-.146.648-.055.626.055.503.124.435.234.358.335.28.357.234.459.179.468.089.526.056.559.032.58H47.98v.002Zm12.178-1.408H58.18v3.541h1.955l.382-.022.368-.056.335-.09.325-.089.256-.167.236-.235.19-.29.09-.346.054-.459-.055-.469-.123-.402-.212-.335-.246-.235-.335-.157-.38-.1-.425-.045-.437-.044Zm0-4.156H58.18v3.228h1.788l.392-.022.401-.056.324-.1.313-.19.223-.213.213-.29.1-.392.045-.413-.044-.424-.136-.38-.222-.257-.29-.212-.325-.168-.391-.078-.413-.033Zm-.023 8.681h-3.15v-9.664h3.297l.49.033.459.078.48.145.402.18.37.256.323.324.247.402.144.458.056.548-.056.57-.144.469-.258.402-.369.324-.424.246-.514.179.514.123.48.19.402.268.312.335.236.38.144.503.056.57-.056.602-.144.515-.236.413-.312.346-.347.28-.446.212-.47.146-.48.088-.49.057-.516.022Zm8.135-3.396h-.335l-.324.033-.368.022-.358.09-.336.111-.312.123-.247.18-.2.245-.135.324-.055.358.055.39.145.303.247.279.301.145.336.146.357.01.458-.01.369-.146.267-.145.246-.235.157-.301.144-.324.08-.358.054-.391.023-.391v-.425h-.2l-.191-.033h-.177Zm.804 3.396-.111-.939-.37.414-.379.324-.435.201-.481.145-.547.023-.435-.023-.436-.1-.38-.146-.336-.2-.267-.292-.245-.346-.124-.436-.055-.48.055-.503.146-.424.223-.347.29-.29.358-.234.39-.169.436-.122.458-.09.47-.055.457-.022h.437l.335.022h.312v-.38l-.023-.436-.089-.347-.134-.29-.18-.235-.28-.19-.322-.1-.426-.022-.346.022-.346.067-.213.168-.223.234-.122.29-.079.403H64.93l.09-.492.167-.436.234-.347.313-.256.357-.201.402-.124.448-.078.435-.033.58.033.516.112.412.145.348.269.257.312.222.436.09.492.057.625v2.492l.032.636.045.559.044.458.08.302h-.984v.001Zm6.792 0V18.74l-.022-.357-.044-.346-.111-.291-.135-.268-.168-.246-.256-.157-.346-.11-.404-.023-.434.055-.368.135-.315.212-.212.257-.19.324-.122.369-.112.38-.023.413-.033.402v3.363h-1.117v-5.43l-.034-.514v-.413l-.023-.369h1.14l.012 1.073.334-.414.38-.313.425-.256.459-.123.547-.056.592.055.491.124.404.223.312.29.258.38.166.436.09.547.033.581v4.18h-1.174Zm7.084 0-3.173-3.787 2.928-2.961h1.451l-3.037 2.905 3.295 3.844h-1.463v-.001Zm-4.344 0v-9.664h1.117v9.664h-1.117Z" fill="#fff"/></svg>