<svg width="144" height="34" viewBox="0 0 144 34" fill="none" xmlns="http://www.w3.org/2000/svg"><path d="M52.708 10.293a5.985 5.985 0 0 1 2.33 2.607 9.248 9.248 0 0 1 .813 4.02 9.217 9.217 0 0 1-.813 4.019 6 6 0 0 1-2.33 2.607 7.445 7.445 0 0 1-7.143 0 6 6 0 0 1-2.33-2.607 9.219 9.219 0 0 1-.813-4.02 9.25 9.25 0 0 1 .813-4.02 5.985 5.985 0 0 1 2.33-2.606 7.408 7.408 0 0 1 7.143 0ZM46.076 13a6.2 6.2 0 0 0-1.131 3.926 6.204 6.204 0 0 0 1.131 3.93 3.962 3.962 0 0 0 6.12 0 6.204 6.204 0 0 0 1.132-3.93A6.198 6.198 0 0 0 52.197 13a3.962 3.962 0 0 0-6.12 0Zm18.972 1.24a4.279 4.279 0 0 1 1.501 1.903c.367.907.545 1.88.522 2.858a7.17 7.17 0 0 1-.522 2.862 4.274 4.274 0 0 1-1.49 1.892 3.957 3.957 0 0 1-2.274.662A3.832 3.832 0 0 1 61.007 24a3.087 3.087 0 0 1-1.25-1.173h-.043v5.13h-2.32V13.88h2.258v1.423h.042a3.17 3.17 0 0 1 1.272-1.24 3.75 3.75 0 0 1 1.803-.449 3.926 3.926 0 0 1 2.279.626Zm-4.776 2.086a4.546 4.546 0 0 0-.678 2.654c-.05.931.187 1.855.678 2.648.398.62 1.089.989 1.825.975a2.174 2.174 0 0 0 1.872-.985A4.53 4.53 0 0 0 64.646 19a4.526 4.526 0 0 0-.688-2.633 2.174 2.174 0 0 0-1.871-.986 2.137 2.137 0 0 0-1.815.965v-.021Zm14.363 5.954a2.05 2.05 0 0 0 .782-1.241H77.8a4.061 4.061 0 0 1-1.564 2.44 5.61 5.61 0 0 1-5.855.307 4.563 4.563 0 0 1-1.726-1.965 6.731 6.731 0 0 1-.604-2.93 6.2 6.2 0 0 1 .594-2.748 4.49 4.49 0 0 1 1.715-1.913 5.025 5.025 0 0 1 2.66-.688 4.741 4.741 0 0 1 2.976.944 4.624 4.624 0 0 1 1.663 2.575 8.44 8.44 0 0 1 .281 2.42h-7.61a3.795 3.795 0 0 0 .808 2.48 2.453 2.453 0 0 0 1.898.783 2.61 2.61 0 0 0 1.6-.443v-.021Zm-3.42-6.35a3.201 3.201 0 0 0-.834 2.012h5.213a3.128 3.128 0 0 0-.823-2.012 2.607 2.607 0 0 0-3.561 0h.005Zm16.052-1.262c.657.72.986 1.778.986 3.175v6.33h-2.315V18.05c0-1.72-.699-2.607-2.085-2.607a2.132 2.132 0 0 0-1.7.777 3.268 3.268 0 0 0-.662 2.195v5.734h-2.32V13.833h2.195v1.345h.041a3.65 3.65 0 0 1 3.092-1.564 3.576 3.576 0 0 1 2.768 1.053Zm5.136.386c.334-.47.783-.85 1.303-1.1a3.921 3.921 0 0 1 1.668-.365 3.576 3.576 0 0 1 2.779 1.08c.657.719.985 1.777.985 3.174v6.33h-2.32V18.05c0-1.72-.698-2.607-2.085-2.607a2.142 2.142 0 0 0-1.7.777 3.295 3.295 0 0 0-.657 2.195v5.734h-2.32V9.71h2.32v5.369l.026-.026Zm14.644 7.247c.405-.304.683-.745.782-1.241h2.377a4.075 4.075 0 0 1-1.564 2.44 5.071 5.071 0 0 1-3.195.975 4.985 4.985 0 0 1-2.675-.689 4.607 4.607 0 0 1-1.731-1.965 6.723 6.723 0 0 1-.599-2.93 6.252 6.252 0 0 1 .589-2.748 4.529 4.529 0 0 1 1.72-1.913 4.993 4.993 0 0 1 2.654-.688 4.74 4.74 0 0 1 2.982.944 4.611 4.611 0 0 1 1.658 2.575c.214.788.311 1.603.286 2.42h-7.59c-.034.895.25 1.774.803 2.48.49.526 1.185.812 1.903.783a2.606 2.606 0 0 0 1.6-.443Zm-3.42-6.371a3.204 3.204 0 0 0-.845 2.012h5.214a3.125 3.125 0 0 0-.824-2.012 2.607 2.607 0 0 0-3.561 0h.016Zm15.119 8.242v-1.428h-.042a3.079 3.079 0 0 1-1.272 1.23 3.764 3.764 0 0 1-1.798.438 3.984 3.984 0 0 1-2.279-.662 4.233 4.233 0 0 1-1.506-1.892 7.174 7.174 0 0 1-.522-2.863 7.167 7.167 0 0 1 .522-2.857 4.298 4.298 0 0 1 1.496-1.903 3.858 3.858 0 0 1 2.268-.672 3.747 3.747 0 0 1 1.777.427c.52.27.954.68 1.252 1.184h.041V9.709h2.32v14.462h-2.257Zm-4.312-7.82a4.489 4.489 0 0 0-.693 2.633c-.048.93.195 1.852.693 2.638a2.17 2.17 0 0 0 1.872.985 2.118 2.118 0 0 0 1.82-.975 4.56 4.56 0 0 0 .682-2.648 4.544 4.544 0 0 0-.682-2.654 2.13 2.13 0 0 0-1.82-.964 2.167 2.167 0 0 0-1.845 1l-.027-.015Zm13.873-2.403c.538.33.991.779 1.325 1.313h.041v-1.428h2.226v9.687c0 1.515-.41 2.657-1.23 3.425a4.885 4.885 0 0 1-3.462 1.152 5.215 5.215 0 0 1-3.206-.866 3.062 3.062 0 0 1-1.241-2.403h2.32c.005.462.232.892.61 1.157a2.61 2.61 0 0 0 1.564.407 2.252 2.252 0 0 0 1.804-.693c.458-.66.67-1.458.6-2.258V22.42h-.042a3.767 3.767 0 0 1-1.303 1.23 3.46 3.46 0 0 1-1.69.396 4.01 4.01 0 0 1-2.267-.641 4.172 4.172 0 0 1-1.497-1.83 6.857 6.857 0 0 1-.521-2.779 6.816 6.816 0 0 1 .521-2.773 3.983 3.983 0 0 1 3.806-2.477 3.38 3.38 0 0 1 1.668.417l-.026-.015Zm-2.94 2.413a3.998 3.998 0 0 0-.662 2.42 4.054 4.054 0 0 0 .662 2.434 2.085 2.085 0 0 0 1.783.902c.732.029 1.43-.31 1.861-.902.488-.715.728-1.57.683-2.434a3.893 3.893 0 0 0-.683-2.42 2.204 2.204 0 0 0-1.861-.896 2.085 2.085 0 0 0-1.757.912l-.026-.015Zm14.498 5.923a2.05 2.05 0 0 0 .782-1.24h2.383a4.062 4.062 0 0 1-1.564 2.439 5.609 5.609 0 0 1-5.87.276 4.56 4.56 0 0 1-1.726-1.965 6.74 6.74 0 0 1-.605-2.93c-.015-.95.189-1.89.595-2.748a4.487 4.487 0 0 1 1.715-1.913 5.026 5.026 0 0 1 2.659-.688 4.742 4.742 0 0 1 2.977.944 4.628 4.628 0 0 1 1.663 2.575 8.51 8.51 0 0 1 .281 2.42h-7.57a3.8 3.8 0 0 0 .808 2.48 2.46 2.46 0 0 0 1.898.809c.568.03 1.13-.125 1.601-.443l-.027-.016Zm-3.42-6.37a3.203 3.203 0 0 0-.844 2.011h5.213a3.129 3.129 0 0 0-.823-2.012 2.607 2.607 0 0 0-3.561 0h.015ZM16.6 33.524c9.167 0 16.599-7.432 16.599-16.6 0-9.167-7.432-16.599-16.6-16.599C7.432.325 0 7.757 0 16.925c0 9.167 7.432 16.6 16.6 16.6Z" fill="#fff"/><path d="M32.844 16.93c0 9.905-6.688 15.046-16.229 15.046C7.075 31.976.37 26.84.37 16.93S7.06 1.858 16.6 1.858 32.844 7.014 32.844 16.93Z" fill="#E5E5E5"/><path d="M32.459 16.935c0 10.646-5.949 13.487-15.86 13.487-9.91 0-15.853-2.841-15.853-13.487S6.689 3.38 16.599 3.38c9.911 0 15.86 2.894 15.86 13.555Z" fill="#CCC"/><path d="M32.083 16.94c0 11.386-5.213 11.928-15.483 11.928S1.115 28.349 1.115 16.94c0-11.407 5.213-12.022 15.483-12.022s15.484.62 15.484 12.022Z" fill="#B2B2B2"/><path d="M31.713 16.945c0 12.122-4.463 10.37-15.119 10.37-10.656 0-15.119 1.752-15.119-10.37 0-12.12 4.453-10.494 15.12-10.494 10.666 0 15.118-1.663 15.118 10.494Z" fill="#999"/><path d="M31.338 16.956c0 12.856-3.712 8.81-14.739 8.81-11.026 0-14.738 4.046-14.738-8.81C1.861 4.1 5.573 7.978 16.6 7.978c11.027 0 14.739-3.936 14.739 8.978Z" fill="gray"/><path d="M30.968 16.961c0 13.591-2.972 7.252-14.369 7.252-11.396 0-14.362 6.35-14.362-7.252s2.976-7.45 14.362-7.45c11.387 0 14.369-6.21 14.369 7.45Z" fill="#666"/><path d="M30.592 16.966c0 14.332-2.226 5.693-13.992 5.693-11.767 0-13.993 8.639-13.993-5.693 0-14.41 2.226-5.922 13.992-5.922 11.767 0 13.993-8.488 13.993 5.922Z" fill="#4D4D4D"/><path d="M30.238 16.971c0 15.067-1.486 4.135-13.623 4.135-12.137 0-13.623 10.948-13.623-4.135 0-15.155 1.481-4.4 13.623-4.4s13.623-10.755 13.623 4.4Z" fill="#333"/><path d="M29.852 16.977c0 15.807-.745 2.575-13.253 2.575-12.506 0-13.247 13.232-13.247-2.575 0-15.906.735-2.873 13.247-2.873 12.513 0 13.253-13.033 13.253 2.873Z" fill="#1A1A1A"/><path d="M29.477 17.008c0 16.547 0 1.043-12.878 1.043-12.877 0-12.877 15.478-12.877-1.043 0-16.652 0-1.345 12.877-1.345 12.878 0 12.878-15.338 12.878 1.345Z" fill="#000"/></svg>