<svg width="119" height="26" viewBox="0 0 119 26" fill="none" xmlns="http://www.w3.org/2000/svg"><path fill-rule="evenodd" clip-rule="evenodd" d="M35.095 5.942h2.842V7.7h.136a5.691 5.691 0 0 1 1.11-1.002 5.478 5.478 0 0 1 3.22-1.028c3.654 0 6.496 2.842 6.496 7.172s-2.842 7.172-6.496 7.172c-1.435 0-2.49-.487-3.22-1a5.064 5.064 0 0 1-1.11-1.03h-.136v6.902h-2.842V5.942Zm6.767 11.502c2.463 0 4.06-1.597 4.06-4.6 0-3.005-1.597-4.602-4.06-4.602-2.3 0-3.925 1.597-3.925 4.601s1.624 4.601 3.925 4.601Zm9.157-11.502h2.842v2.03h.135c.217-.406.514-.758.866-1.083.623-.541 1.543-1.083 2.923-1.083h1.624v2.707H57.65c-2.165 0-3.79 1.489-3.79 3.789v7.443h-2.84V5.942ZM67 5.67c3.924 0 7.037 3.14 7.037 7.173v.947H62.805c.433 2.301 2.165 3.654 4.195 3.654 1.407 0 2.409-.433 3.031-.947.352-.27.65-.595.893-.947h2.977c-.352.839-.812 1.597-1.434 2.246-1.082 1.083-2.734 2.22-5.467 2.22-3.925 0-7.037-3.14-7.037-7.173 0-4.032 3.112-7.172 7.037-7.172Zm4.06 5.82c-.298-1.624-1.597-3.248-4.06-3.248-1.895 0-3.627 1.19-4.06 3.248h8.12Zm5.034-5.548h2.842v1.894h.135c.244-.406.541-.758.92-1.083.65-.54 1.624-1.082 3.14-1.082 1.76 0 2.869.65 3.545 1.299.407.379.704.812.92 1.272h.136c.244-.46.596-.893 1.056-1.272.73-.65 1.921-1.3 3.68-1.3 3.14 0 5.143 2.004 5.143 5.82v8.255H94.77v-8.12c0-2.3-1.056-3.383-2.977-3.383-1.868 0-3.518 1.624-3.518 3.925v7.578H85.43v-8.12c0-2.3-1.055-3.383-2.977-3.383-1.867 0-3.518 1.624-3.518 3.925v7.578h-2.842V5.942ZM101.753.528c.948 0 1.705.758 1.705 1.706 0 .947-.757 1.677-1.705 1.677-.947 0-1.678-.73-1.678-1.677 0-.948.731-1.706 1.678-1.706Zm-1.407 19.217h2.842V5.942h-2.842v13.803ZM111.692 5.67c1.408 0 2.491.515 3.221 1.03a5.72 5.72 0 0 1 1.11 1h.135V5.943H119v13.803h-2.842V17.85h-.135c-.298.406-.677.758-1.11 1.083a5.362 5.362 0 0 1-3.221 1.082c-3.653 0-6.495-2.841-6.495-7.172 0-4.33 2.842-7.172 6.495-7.172Zm.542 11.774c2.3 0 3.924-1.596 3.924-4.6 0-3.005-1.624-4.602-3.924-4.602-2.463 0-4.06 1.597-4.06 4.601 0 3.005 1.597 4.601 4.06 4.601Z" fill="#fff"/><path fill-rule="evenodd" clip-rule="evenodd" d="M7.003 5.886h11.745a.817.817 0 0 1 .662 1.298l-5.59 7.686a.817.817 0 0 0 .66 1.298h4.927a.817.817 0 0 0 .66-.337l5.529-7.601a.818.818 0 0 0 0-.962L20.749.605a.817.817 0 0 0-.66-.337H5.663a.817.817 0 0 0-.661.337L.156 7.268a.818.818 0 0 0 0 .962l12.059 16.58a.818.818 0 0 0 1.322 0L16 21.425a.817.817 0 0 0 0-.961L6.343 7.184a.817.817 0 0 1 .66-1.298Z" fill="#5294FF"/></svg>