<svg width="172" height="30" viewBox="0 0 172 30" fill="none" xmlns="http://www.w3.org/2000/svg"><path d="M43.356 7.158h7.866v2.69h-7.704c-.497 0-.895.145-1.193.428a1.336 1.336 0 0 0-.444 1c0 .335.104.645.313.923.21.278.518.459.921.551l5.675 1.335c1.12.278 1.977.804 2.568 1.577.591.773.89 1.629.89 2.567 0 1.18-.408 2.2-1.224 3.061-.816.86-1.94 1.288-3.374 1.288h-8.217v-2.69h8.102c.528 0 .947-.16 1.26-.484.309-.32.466-.69.466-1.103 0-.35-.115-.68-.35-.98-.236-.298-.56-.494-.979-.587L42.236 15.4c-1.103-.263-1.94-.773-2.51-1.53a4.09 4.09 0 0 1-.853-2.52c0-1.134.398-2.119 1.193-2.943.795-.83 1.893-1.242 3.29-1.242v-.006ZM61.4 22.893c-2.396 0-4.357-.773-5.884-2.325-1.528-1.55-2.286-3.442-2.286-5.679s.758-4.159 2.275-5.715c1.517-1.557 3.484-2.335 5.895-2.335 2.411 0 4.399.773 5.916 2.324 1.517 1.551 2.275 3.458 2.275 5.726s-.758 4.154-2.275 5.695c-1.517 1.54-3.49 2.314-5.916 2.314v-.005Zm0-2.69c1.6 0 2.898-.516 3.886-1.552.989-1.036 1.48-2.298 1.48-3.783 0-1.484-.496-2.747-1.48-3.782C64.298 10.05 63 9.534 61.4 9.534s-2.877.516-3.865 1.552c-.989 1.035-1.48 2.298-1.48 3.782 0 1.485.491 2.747 1.48 3.783.988 1.036 2.275 1.552 3.865 1.552Zm10.1 2.37V7.158h2.804v12.72h8.379v2.69H71.5v.005Zm13.05 0V7.158h2.804v15.41H84.55v.005Zm5.314-.02V7.158h6.444c2.286 0 4.169.727 5.649 2.175 1.481 1.448 2.218 3.278 2.218 5.484v.067c0 2.206-.737 4.035-2.218 5.483-1.48 1.449-3.363 2.175-5.649 2.175h-6.444v.01Zm6.397-12.7H92.67v10.03h3.593c1.496 0 2.715-.464 3.667-1.392.947-.927 1.423-2.128 1.423-3.597v-.067c0-1.474-.476-2.67-1.423-3.587-.947-.922-2.17-1.381-3.667-1.381v-.005Zm13.411-2.69h7.867v2.69h-7.705c-.496 0-.894.145-1.192.429a1.336 1.336 0 0 0-.445 1c0 .334.105.644.314.922.209.278.518.459.921.551l5.675 1.335c1.119.278 1.977.804 2.568 1.577.591.773.889 1.629.889 2.567 0 1.18-.408 2.2-1.224 3.061-.816.86-1.94 1.289-3.373 1.289h-8.218v-2.69h8.102c.529 0 .947-.16 1.261-.485.309-.32.466-.69.466-1.103 0-.35-.116-.68-.351-.98-.235-.298-.56-.494-.978-.587l-5.696-1.335c-1.104-.262-1.941-.773-2.511-1.53a4.09 4.09 0 0 1-.852-2.52c0-1.134.397-2.119 1.192-2.943.795-.83 1.894-1.242 3.29-1.242v-.005Zm9.352 0h13.657v2.69h-5.439v12.72h-2.778V9.85h-5.44V7.16v.005Zm28.015 15.41h-3.154l-1.543-3.705h-6.977l-1.517 3.705h-3.081l6.585-15.41h3.081l6.606 15.41Zm-8.217-12.147-2.427 5.932h4.901l-2.474-5.932Zm6.266-3.268h13.657v2.69h-5.44v12.72h-2.777V9.848h-5.44v-2.69ZM172 22.568h-11.79V7.158H172v2.69h-8.986v3.52h8.123v2.598h-8.123v3.912H172v2.69Z" fill="#fff"/><path d="M14.358 29.954a.33.33 0 0 0 .324 0l5.372-3.057a.324.324 0 0 0 .162-.278v-8.586c0-.438-.24-.845-.623-1.067l-5.78-3.288a1.365 1.365 0 0 1-.695-1.185V.32a.317.317 0 0 0-.324-.32.36.36 0 0 0-.162.041L7.72 2.84a1.224 1.224 0 0 0-.622 1.067v8.06c0 .438.24.845.622 1.067l5.78 3.288c.429.242.696.696.696 1.185V29.68c0 .119.062.222.162.279v-.005Z" fill="#22D372"/><path d="M21.456 25.918a.33.33 0 0 0 .324 0l4.911-2.793a1.23 1.23 0 0 0 .623-1.067v-4.025c0-.438-.24-.845-.623-1.067l-5.78-3.288a1.365 1.365 0 0 1-.695-1.185V3.9c0-.438-.24-.845-.623-1.066L14.682.04A.304.304 0 0 0 14.52 0a.36.36 0 0 0-.162.041.307.307 0 0 0-.162.279v11.647c0 .438.24.845.622 1.067l5.78 3.288c.429.242.695.696.695 1.185v8.138c0 .119.063.222.163.278v-.005Z" fill="#22D372"/><path d="M26.691 6.875 21.78 4.082a.33.33 0 0 0-.325 0 .307.307 0 0 0-.162.278v7.607c0 .438.241.845.623 1.067l4.911 2.793a.33.33 0 0 0 .325 0 .307.307 0 0 0 .162-.278V7.942c0-.438-.24-.845-.623-1.067ZM5.398 16.966.486 14.173a.304.304 0 0 0-.162-.041.36.36 0 0 0-.162.041.307.307 0 0 0-.162.278v7.607c0 .438.24.846.622 1.067l4.912 2.794a.33.33 0 0 0 .324 0 .307.307 0 0 0 .162-.279v-7.607c0-.438-.24-.845-.622-1.067Z" fill="#22D372"/><path d="m7.26 26.897 5.372 3.057a.33.33 0 0 0 .324 0 .307.307 0 0 0 .162-.279V18.033c0-.438-.24-.845-.622-1.067l-5.78-3.288a1.364 1.364 0 0 1-.696-1.185V4.36a.317.317 0 0 0-.324-.32.36.36 0 0 0-.162.042L.622 6.875A1.224 1.224 0 0 0 0 7.942v4.025c0 .438.24.845.622 1.067l5.78 3.288c.429.242.696.696.696 1.185v9.117c0 .114.063.222.162.279v-.006Z" fill="#22D372"/></svg>