<svg width="99" height="31" viewBox="0 0 99 31" fill="none" xmlns="http://www.w3.org/2000/svg">
<path d="M43.2466 24.0516H47.5423L53.3003 8.11814H49.6749L45.562 20.2739L41.3883 8.11814H37.4277L43.2466 24.0516Z" fill="white"/>
<path d="M58.5365 24.3563C60.9738 24.3563 62.3752 23.4728 63.411 22.1018V24.0516H67.0364V13.6019C67.0364 9.24536 64.2336 7.78302 60.6691 7.78302C57.1047 7.78302 54.1495 9.33676 53.8448 13.0536H57.4093C57.5921 11.4693 58.5365 10.5554 60.4559 10.5554C62.6189 10.5554 63.3501 11.6217 63.3501 13.7543V14.5768H61.3698C56.8 14.5768 53.2051 15.9173 53.2051 19.6341C53.2051 22.9548 55.6118 24.3563 58.5365 24.3563ZM59.42 21.7058C57.5921 21.7058 56.8609 20.8223 56.8609 19.4818C56.8609 17.532 58.6584 16.8922 61.4612 16.8922H63.3501V18.4764C63.3501 20.5176 61.6745 21.7058 59.42 21.7058Z" fill="white"/>
<path d="M69.982 24.0516H73.6684V0.745483H69.982V24.0516Z" fill="white"/>
<path d="M76.882 24.0516H80.5683V8.11814H76.882V24.0516ZM78.6795 5.4981C79.8981 5.4981 80.873 4.58414 80.873 3.39598C80.873 2.17736 79.8981 1.2634 78.6795 1.2634C77.4609 1.2634 76.486 2.17736 76.486 3.39598C76.486 4.58414 77.4609 5.4981 78.6795 5.4981Z" fill="white"/>
<path d="M90.8195 21.4925C88.0167 21.4925 86.402 19.4513 86.402 16.1915V15.9478C86.402 12.6575 88.0776 10.6772 90.8195 10.6772C93.5614 10.6772 95.2065 12.688 95.2065 15.9782V16.1915C95.2065 19.4513 93.5614 21.4925 90.8195 21.4925ZM90.789 24.3563C95.4807 24.3563 98.9843 21.1269 98.9843 16.161V15.9173C98.9843 11.0428 95.4807 7.78302 90.8195 7.78302C86.1278 7.78302 82.6243 11.0733 82.6243 16.0087V16.2524C82.6243 21.0965 86.0974 24.3563 90.789 24.3563Z" fill="white"/>
<path d="M13.4954 6.99685C13.6183 7.06251 13.7547 7.09678 13.8932 7.09678C14.0316 7.09678 14.168 7.06251 14.2909 6.99685L27.4056 0.0317499C27.445 0.0114596 27.4888 0.00187784 27.5328 0.00391496C27.5768 0.00595207 27.6195 0.0195404 27.657 0.0433889C27.6945 0.0672375 27.7254 0.100554 27.7468 0.140173C27.7683 0.179793 27.7795 0.224398 27.7795 0.269753V5.86983C27.7795 6.03335 27.7358 6.19371 27.653 6.33326C27.5702 6.47282 27.4517 6.58617 27.3104 6.66085L14.2773 13.6049C14.2377 13.6269 14.1932 13.6378 14.1482 13.6366C14.1032 13.6354 14.0593 13.6221 14.0208 13.5981C13.9823 13.574 13.9506 13.54 13.9289 13.4995C13.9071 13.459 13.8959 13.4133 13.8966 13.3669V11.0569C13.8978 10.8922 13.8547 10.7304 13.7718 10.5895C13.689 10.4486 13.5698 10.3341 13.4275 10.2589L0.469136 3.3778C0.327805 3.30134 0.209423 3.18662 0.126756 3.04599C0.044088 2.90536 0.000269824 2.74417 2.56724e-05 2.57979V0.269753C-0.000608645 0.223423 0.0105215 0.177727 0.0323141 0.137188C0.0541067 0.0966486 0.0858057 0.0626736 0.124272 0.0386271C0.162739 0.0145805 0.206639 0.00129642 0.251625 9.01751e-05C0.296611 -0.00111607 0.341123 0.00979736 0.380753 0.0317499L13.4954 7.03185V6.99685ZM13.4954 15.684L0.380753 8.68387C0.341123 8.66192 0.296611 8.65101 0.251625 8.65221C0.206639 8.65342 0.162739 8.6667 0.124272 8.69075C0.0858057 8.7148 0.0541067 8.74877 0.0323141 8.78931C0.0105215 8.82985 -0.000608645 8.87555 2.56724e-05 8.92188V11.2389C-0.000973443 11.4045 0.0422574 11.5671 0.124992 11.7091C0.207727 11.8511 0.32678 11.9669 0.469136 12.0439L13.3867 18.925C13.5385 18.9968 13.6668 19.1124 13.7561 19.2577C13.8454 19.4031 13.8918 19.572 13.8898 19.744V22.0541C13.8891 22.1004 13.9003 22.1461 13.9221 22.1866C13.9438 22.2272 13.9755 22.2611 14.014 22.2852C14.0525 22.3092 14.0964 22.3225 14.1414 22.3237C14.1864 22.3249 14.2309 22.314 14.2705 22.2921L27.3104 15.362C27.4529 15.2883 27.5729 15.1753 27.6569 15.0357C27.7409 14.8961 27.7857 14.7352 27.7863 14.571V8.97088C27.7869 8.92455 27.7758 8.87885 27.754 8.83831C27.7322 8.79777 27.7005 8.7638 27.6621 8.73975C27.6236 8.7157 27.5797 8.70242 27.5347 8.70121C27.4897 8.70001 27.4452 8.71092 27.4056 8.73287L14.2773 15.649C14.1544 15.7146 14.018 15.7489 13.8796 15.7489C13.7411 15.7489 13.6047 15.7146 13.4818 15.649L13.4954 15.684ZM13.4818 24.3081L0.380753 17.336C0.340897 17.3161 0.296834 17.3068 0.252589 17.3089C0.208344 17.3111 0.165326 17.3246 0.127464 17.3483C0.0896021 17.372 0.0581022 17.405 0.0358409 17.4444C0.0135796 17.4839 0.00126641 17.5284 2.56724e-05 17.574V19.891C-0.000768289 20.0547 0.0426905 20.2154 0.125539 20.3551C0.208388 20.4948 0.327358 20.608 0.469136 20.682L13.3867 27.5701C13.5284 27.6442 13.6474 27.7574 13.7303 27.8971C13.8131 28.0368 13.8566 28.1975 13.8558 28.3612V30.6782C13.8462 30.7323 13.8528 30.7882 13.8746 30.8385C13.8964 30.8887 13.9325 30.931 13.9781 30.9598C14.0237 30.9885 14.0766 31.0024 14.13 30.9997C14.1834 30.9969 14.2348 30.9775 14.2773 30.9442L27.3172 24.0141C27.4603 23.9392 27.5805 23.825 27.6645 23.6842C27.7485 23.5434 27.793 23.3813 27.7931 23.2161V17.616C27.7919 17.5704 27.7796 17.5259 27.7573 17.4864C27.735 17.447 27.7035 17.414 27.6657 17.3903C27.6278 17.3666 27.5848 17.3531 27.5405 17.3509C27.4963 17.3488 27.4522 17.3581 27.4124 17.378L14.2773 24.3081C14.1544 24.3738 14.018 24.408 13.8796 24.408C13.7411 24.408 13.6047 24.3738 13.4818 24.3081" fill="#9340F4"/>
</svg>
