<svg width="67" height="21" viewBox="0 0 67 21" fill="none" xmlns="http://www.w3.org/2000/svg">
<path d="M29.2727 16.28H32.1803L36.0777 5.49501H33.6238L30.8399 13.7229L28.0148 5.49501H25.334L29.2727 16.28Z" fill="white"/>
<path d="M39.622 16.4862C41.2717 16.4862 42.2203 15.8882 42.9214 14.9602V16.28H45.3754V9.20685C45.3754 6.258 43.4782 5.26817 41.0655 5.26817C38.6528 5.26817 36.6525 6.31986 36.4463 8.83567H38.859C38.9827 7.76336 39.622 7.14472 40.9212 7.14472C42.3853 7.14472 42.8802 7.86647 42.8802 9.30996V9.86674H41.5398C38.4466 9.86674 36.0133 10.7741 36.0133 13.2899C36.0133 15.5376 37.6424 16.4862 39.622 16.4862ZM40.22 14.6921C38.9827 14.6921 38.4878 14.0941 38.4878 13.1868C38.4878 11.867 39.7045 11.434 41.6017 11.434H42.8802V12.5063C42.8802 13.8879 41.746 14.6921 40.22 14.6921Z" fill="white"/>
<path d="M47.3692 16.28H49.8644V0.504639H47.3692V16.28Z" fill="white"/>
<path d="M52.0396 16.28H54.5348V5.49501H52.0396V16.28ZM53.2563 3.72157C54.0811 3.72157 54.741 3.10293 54.741 2.2987C54.741 1.47384 54.0811 0.855202 53.2563 0.855202C52.4314 0.855202 51.7715 1.47384 51.7715 2.2987C51.7715 3.10293 52.4314 3.72157 53.2563 3.72157Z" fill="white"/>
<path d="M61.4736 14.5478C59.5764 14.5478 58.4835 13.1662 58.4835 10.9597V10.7947C58.4835 8.56759 59.6176 7.2272 61.4736 7.2272C63.3295 7.2272 64.443 8.58821 64.443 10.8153V10.9597C64.443 13.1662 63.3295 14.5478 61.4736 14.5478ZM61.4529 16.4862C64.6286 16.4862 67.0001 14.3003 67.0001 10.939V10.7741C67.0001 7.47466 64.6286 5.26817 61.4736 5.26817C58.2979 5.26817 55.9264 7.49528 55.9264 10.8359V11.0009C55.9264 14.2797 58.2773 16.4862 61.4529 16.4862Z" fill="white"/>
<path d="M9.13473 4.736C9.21791 4.78044 9.31024 4.80364 9.40394 4.80364C9.49765 4.80364 9.58998 4.78044 9.67315 4.736L18.5502 0.0214907C18.5768 0.00775671 18.6065 0.00127107 18.6363 0.00264994C18.666 0.00402881 18.695 0.0132264 18.7203 0.0293689C18.7457 0.0455114 18.7666 0.0680626 18.7812 0.0948799C18.7957 0.121697 18.8033 0.15189 18.8033 0.182589V3.97315C18.8033 4.08383 18.7736 4.19237 18.7176 4.28683C18.6616 4.38129 18.5814 4.45802 18.4857 4.50856L9.66395 9.20885C9.63712 9.22371 9.607 9.2311 9.57655 9.23028C9.5461 9.22947 9.51638 9.22047 9.49034 9.2042C9.46431 9.18792 9.44285 9.16493 9.4281 9.13749C9.41335 9.11005 9.40582 9.07911 9.40624 9.04775V7.48415C9.40711 7.37267 9.37788 7.26313 9.32181 7.16775C9.26574 7.07237 9.18505 6.99491 9.08872 6.944L0.317547 2.28635C0.221883 2.2346 0.141754 2.15694 0.0857978 2.06175C0.0298421 1.96657 0.000182637 1.85746 1.7377e-05 1.74619V0.182589C-0.000411977 0.15123 0.00712177 0.120299 0.0218726 0.0928589C0.0366235 0.065419 0.0580798 0.0424222 0.0841168 0.0261457C0.110154 0.00986919 0.139869 0.000877516 0.170319 6.10373e-05C0.200769 -0.000755442 0.230898 0.00663159 0.257722 0.0214907L9.13473 4.75969V4.736ZM9.13473 10.6161L0.257722 5.8779C0.230898 5.86304 0.200769 5.85566 0.170319 5.85647C0.139869 5.85729 0.110154 5.86628 0.0841168 5.88256C0.0580798 5.89883 0.0366235 5.92183 0.0218726 5.94927C0.00712177 5.97671 -0.000411977 6.00764 1.7377e-05 6.039V7.60734C-0.0006589 7.71941 0.028603 7.82952 0.084604 7.92562C0.140605 8.02172 0.221189 8.10011 0.317547 8.15224L9.0611 12.8099C9.16387 12.8585 9.25074 12.9367 9.31118 13.0351C9.37163 13.1335 9.40305 13.2478 9.40164 13.3643V14.9279C9.40121 14.9592 9.40875 14.9901 9.4235 15.0176C9.43825 15.045 9.45971 15.068 9.48574 15.0843C9.51178 15.1006 9.54149 15.1096 9.57194 15.1104C9.60239 15.1112 9.63252 15.1038 9.65935 15.089L18.4857 10.3981C18.5822 10.3482 18.6634 10.2718 18.7203 10.1773C18.7771 10.0828 18.8075 9.9739 18.8079 9.86273V6.07217C18.8083 6.04081 18.8008 6.00988 18.786 5.98244C18.7713 5.955 18.7498 5.932 18.7238 5.91572C18.6977 5.89945 18.668 5.89046 18.6376 5.88964C18.6071 5.88882 18.577 5.89621 18.5502 5.91107L9.66395 10.5924C9.58078 10.6368 9.48845 10.66 9.39474 10.66C9.30103 10.66 9.2087 10.6368 9.12553 10.5924L9.13473 10.6161ZM9.12553 16.4536L0.257722 11.7343C0.230745 11.7208 0.20092 11.7145 0.170971 11.716C0.141023 11.7175 0.111905 11.7266 0.0862774 11.7426C0.0606495 11.7587 0.0393279 11.781 0.0242598 11.8077C0.00919172 11.8344 0.000857202 11.8646 1.7377e-05 11.8954V13.4638C-0.000520036 13.5745 0.0288962 13.6833 0.0849744 13.7779C0.141053 13.8724 0.22158 13.9491 0.317547 13.9992L9.0611 18.6616C9.15707 18.7117 9.2376 18.7883 9.29368 18.8829C9.34975 18.9774 9.37917 19.0862 9.37863 19.197V20.7653C9.37216 20.802 9.37661 20.8398 9.39138 20.8738C9.40616 20.9078 9.43058 20.9364 9.46143 20.9559C9.49228 20.9754 9.52813 20.9848 9.56427 20.9829C9.60041 20.981 9.63516 20.9679 9.66395 20.9454L18.4903 16.2546C18.5872 16.2039 18.6685 16.1266 18.7254 16.0313C18.7822 15.9359 18.8124 15.8263 18.8125 15.7144V11.9238C18.8116 11.893 18.8033 11.8628 18.7882 11.8361C18.7732 11.8095 18.7518 11.7871 18.7262 11.7711C18.7006 11.755 18.6715 11.7459 18.6415 11.7444C18.6116 11.743 18.5817 11.7493 18.5548 11.7627L9.66395 16.4536C9.58078 16.498 9.48845 16.5212 9.39474 16.5212C9.30103 16.5212 9.2087 16.498 9.12553 16.4536" fill="#9340F4"/>
</svg>
