<svg width="149" height="28" viewBox="0 0 149 28" fill="none" xmlns="http://www.w3.org/2000/svg"><path d="M147.466 14.311v-.249c0-3.876-2.406-6.222-5.511-6.222-3.104 0-5.566 2.395-5.566 6.222v.249c0 3.764 2.35 6.185 5.566 6.185 3.217 0 5.511-2.39 5.511-6.185Zm-12.586 0v-.249c0-4.411 3.16-7.467 7.075-7.467S149 9.575 149 14.062v.224c0 4.443-3.13 7.467-7.075 7.467-3.946 0-7.045-3.111-7.045-7.467v.025Zm-6.234-7.504h1.484v3.111a5.242 5.242 0 0 1 1.964-2.421 5.199 5.199 0 0 1 2.984-.87v1.406c-2.827.118-4.948 1.437-4.948 5.345v8.138h-1.484V6.807Zm-3.711 7.467v-.212c0-4.05-2.375-6.222-5.177-6.222-2.802 0-5.449 2.165-5.449 6.222v.249c0 4.02 2.431 6.185 5.48 6.185 3.049 0 5.146-2.265 5.146-6.185v-.037Zm-12.079-7.43h1.478v3.435a6.287 6.287 0 0 1 2.261-2.633A6.238 6.238 0 0 1 119.9 6.62c3.711 0 6.575 2.838 6.575 7.423v.23c0 4.611-2.802 7.51-6.575 7.51a5.91 5.91 0 0 1-3.323-.937 5.961 5.961 0 0 1-2.243-2.64v8.431h-1.478V6.844Zm-5.128 13.69a1.19 1.19 0 0 1 1.416-1.185 1.193 1.193 0 0 1 .866 1.635 1.19 1.19 0 0 1-1.107.731 1.185 1.185 0 0 1-.827-.35 1.2 1.2 0 0 1-.348-.832ZM94.74 16.992h3.185c.167 1.487.922 2.358 2.907 2.358 1.819 0 2.629-.622 2.629-1.867 0-1.244-.977-1.655-3.13-2.022-3.86-.622-5.288-1.717-5.288-4.474 0-2.955 2.74-4.417 5.48-4.417 2.993 0 5.368 1.126 5.733 4.448h-3.129c-.279-1.35-1.039-1.972-2.604-1.972-1.453 0-2.32.703-2.32 1.742 0 1.04.7 1.494 3.019 1.867 3.439.535 5.48 1.381 5.48 4.505 0 2.98-2.097 4.697-5.839 4.697-3.742 0-5.987-1.748-6.123-4.865Zm-7.422.473V9.364h-1.967V6.807h1.961V3.571h3.383v3.236h3.216v2.557h-3.216v7.74c0 1.295.619 1.867 1.676 1.867a4.116 4.116 0 0 0 1.652-.286v2.72a6.432 6.432 0 0 1-2.295.366c-2.907 0-4.416-1.574-4.416-4.355l.006.05ZM80.508-.006h3.384v21.522h-3.383V-.006Zm-15.165 16.24V6.807h3.383v9.028c0 2.222.922 3.236 2.876 3.236a3.248 3.248 0 0 0 2.493-.986 3.288 3.288 0 0 0 .921-2.53V6.807H78.4v14.71h-3.384v-2.303c-.73 1.431-2.263 2.588-4.644 2.588-2.876 0-5.029-1.66-5.029-5.568Zm-5.48.136v-1.437h-1.725c-2.573 0-4.224.591-4.224 2.39 0 1.244.674 2.053 2.35 2.053 2.072 0 3.606-1.095 3.606-2.98l-.006-.026Zm-9.308 1.052c0-3.435 3.297-4.673 7.49-4.673h1.819v-.74c0-1.966-.668-2.95-2.654-2.95-1.763 0-2.628.84-2.795 2.303h-3.272c.278-3.429 2.987-4.866 6.259-4.866 3.272 0 5.845 1.35 5.845 5.376v9.644h-3.328v-1.798c-.946 1.244-2.233 2.084-4.471 2.084-2.685 0-4.893-1.294-4.893-4.355v-.025ZM36.107 6.807h3.637l3.828 11.2 3.773-11.2h3.328l-5.282 14.71h-3.952l-5.332-14.71Z" fill="#fff"/><path d="M12.277 6.714a.782.782 0 0 0 .724 0L24.93.523a.234.234 0 0 1 .31.096c.02.035.03.075.03.115v4.978a.795.795 0 0 1-.426.703l-11.857 6.173a.235.235 0 0 1-.346-.212v-2.053a.793.793 0 0 0-.427-.71L.427 3.498A.8.8 0 0 1 0 2.787V.735a.238.238 0 0 1 .229-.24.234.234 0 0 1 .117.029l11.931 6.222v-.031Zm0 7.722L.347 8.214a.234.234 0 0 0-.318.093.238.238 0 0 0-.029.118v2.06a.806.806 0 0 0 .427.715l11.751 6.117a.788.788 0 0 1 .458.728v2.053a.239.239 0 0 0 .113.205.234.234 0 0 0 .233.006l11.863-6.16a.787.787 0 0 0 .433-.703V8.47a.238.238 0 0 0-.113-.206.234.234 0 0 0-.234-.006l-11.943 6.148a.781.781 0 0 1-.723 0l.012.03Zm-.012 7.666L.346 15.904a.24.24 0 0 0-.346.212v2.06a.788.788 0 0 0 .427.702l11.751 6.123a.78.78 0 0 1 .427.703v2.06a.245.245 0 0 0 .111.25.24.24 0 0 0 .272-.014l11.863-6.16a.794.794 0 0 0 .433-.71v-4.977a.243.243 0 0 0-.23-.235.24.24 0 0 0-.116.024l-11.95 6.16a.781.781 0 0 1-.723 0" fill="#9340F4"/></svg>